<svg width="674" height="447" viewBox="0 0 674 447" fill="none" xmlns="http://www.w3.org/2000/svg">
<path d="M386.077 213.151H602.388L511.132 306.097H424.945L284.681 427.772V209.771H190.045L164.696 179.352L156.247 169.213L115.688 121.895H284.681V88.096H86.9596L19.3625 8.66934H651.396L573.659 88.096H386.077V213.151Z" fill="#E43D30"/>
<path d="M276.232 446.354V218.214H186.668L157.939 184.416L149.49 175.967L97.1012 113.439H276.233V94.8502H83.5811L0.775146 0.216431H673.369L578.735 94.8502H394.534V203.004H622.673L514.519 312.85H426.644L276.232 446.354ZM195.115 201.317H294.818V407.486L421.562 297.64H509.437L583.793 221.592H377.624V79.6393H570.276L631.115 17.1117H37.9423L90.3306 77.9506H293.122V130.339H134.268L162.997 164.138L171.446 172.587L195.115 201.317Z" fill="black"/>
</svg>
