<svg width="248" height="213" viewBox="0 0 248 213" fill="none" xmlns="http://www.w3.org/2000/svg">
<path d="M245.986 0.499451H137.644C136.603 0.499451 135.702 1.33176 135.702 2.44157V36.2202C135.702 37.2606 136.534 38.1623 137.644 38.1623H208.46C209.5 38.1623 210.402 38.9947 210.402 40.1045V87.0606C210.402 87.5461 210.194 88.0317 209.847 88.4478L176.623 121.81C175.375 123.059 173.294 122.157 173.294 120.423V88.6559C173.294 88.1704 173.502 87.6849 173.849 87.2687L193.408 67.5009C194.588 66.2524 193.755 64.241 192.021 64.241H137.642C136.602 64.241 135.7 65.1427 135.7 66.1831V210.661C135.7 212.395 137.781 213.227 139.029 212.048L247.44 104.193C247.787 103.847 247.995 103.361 247.995 102.806V2.44233C247.926 1.40192 247.093 0.5002 245.983 0.5002" fill="black"/>
<path d="M2.3236 0.499457H110.734C111.774 0.499457 112.676 1.33177 112.676 2.44157V36.2202C112.676 37.2606 111.844 38.1623 110.734 38.1623H39.918C38.8776 38.1623 37.9759 38.9947 37.9759 40.1045V87.0606C37.9759 87.5462 38.1841 88.0317 38.5308 88.4478L71.7546 121.81C73.0031 123.059 75.0839 122.157 75.0839 120.423V88.6559C75.0839 88.1704 74.8757 87.6849 74.529 87.2687L54.9695 67.501C53.7903 66.2524 54.6225 64.241 56.3567 64.241H110.736C111.776 64.241 112.678 65.1427 112.678 66.1831V210.661C112.678 212.395 110.597 213.227 109.349 212.048L1.00618 104.122C0.659229 103.775 0.451283 103.289 0.451283 102.734V2.43854C0.38174 1.39813 1.28365 0.496429 2.32406 0.496429" fill="#AA8B30"/>
</svg>
