<svg width="201" height="193" viewBox="0 0 201 193" fill="none" xmlns="http://www.w3.org/2000/svg">
<path d="M94.3456 69.4433C94.3456 69.4433 98.9424 69.7969 102.832 74.7473L100.71 75.1009L99.6497 74.7473C99.6497 74.7473 96.4672 70.8577 94.3456 69.4433V69.4433ZM87.2736 91.3665L85.152 86.0625H84.4448L80.9088 90.3057C83.384 92.4273 87.2736 91.3665 87.2736 91.3665ZM119.805 60.2497L118.037 60.9569L120.158 64.8465L127.23 67.3217C124.402 61.3105 119.805 60.2497 119.805 60.2497V60.2497ZM99.6497 67.6753C101.771 70.1505 103.893 73.6865 103.893 73.6865C107.429 70.1505 114.854 68.7361 124.402 69.0897C110.965 66.2609 99.6497 67.6753 99.6497 67.6753V67.6753ZM86.5664 62.3713C86.5664 62.3713 90.456 62.3713 95.76 63.4321C92.224 60.9569 86.5664 59.5425 86.5664 59.5425V62.3713V62.3713ZM119.098 81.8193L113.086 87.1233L117.683 88.5377L122.28 83.5873L119.805 82.5265L119.098 81.8193V81.8193ZM79.1408 53.8849C79.1408 53.8849 81.616 55.2993 81.9696 55.2993C82.3232 55.2993 87.2736 57.0673 89.3952 57.7745C91.1632 58.4817 92.224 57.7745 92.5776 57.7745C92.9312 57.7745 98.9424 54.2385 98.9424 54.2385C93.6384 52.1169 88.688 50.7025 88.688 50.7025C88.3344 50.7025 79.1408 53.8849 79.1408 53.8849V53.8849ZM115.208 57.0673C114.854 56.3601 114.147 56.3601 109.904 55.6529C106.014 55.2993 102.478 54.9457 101.771 54.9457C101.064 54.9457 100.71 55.2993 100.71 55.2993C100.71 55.2993 98.5888 56.7137 96.8208 57.7745C95.0528 58.8353 94.6992 59.1889 94.3456 59.8961C93.992 60.2497 95.0528 61.6641 95.0528 61.6641L97.8817 65.2001C98.2353 65.2001 99.296 65.9073 99.296 65.9073C99.296 65.9073 104.954 65.5537 108.49 65.2001H117.683C118.037 65.2001 117.683 63.7857 116.976 62.0177C116.269 60.6033 115.208 57.0673 115.208 57.0673V57.0673ZM81.616 60.9569C81.616 60.9569 81.9696 60.9569 82.6768 61.3105C83.384 61.3105 83.7376 60.6033 83.7376 59.8961C83.7376 58.8353 82.6768 58.4817 82.6768 58.4817H81.9696L80.9088 58.8353L80.5552 61.3105H80.9088L81.616 60.9569C81.2624 60.2497 81.2624 59.8961 81.2624 59.1889C81.2624 58.8353 81.9696 58.1281 82.3232 58.1281C82.3232 58.1281 83.0304 58.1281 82.6768 59.5425C82.6768 60.9569 81.616 60.9569 81.616 60.9569V60.9569ZM141.374 88.8913L138.546 92.7809V93.1346H142.435C143.143 90.6593 141.374 88.8913 141.374 88.8913ZM70.6544 70.5041H69.9472L68.1792 70.1505C66.4112 69.7969 67.1184 66.6145 67.1184 66.6145L64.9968 67.3217C64.2896 65.9073 61.1072 62.0177 61.1072 62.0177L60.4 64.8465C60.7536 65.2001 62.5216 68.0289 62.8752 68.7361L61.8144 69.7969C61.8144 69.7969 61.4608 70.5041 61.4608 70.8577C61.4608 71.2113 61.1072 71.5649 61.1072 71.5649L59.6928 72.2721H59.3392L54.3888 68.3825V71.2113H54.7424C55.096 71.9185 55.8032 73.3329 57.5712 74.0401C58.9856 74.7473 60.7536 74.7473 61.4608 74.3937C62.168 74.7473 62.5216 74.7473 62.8752 75.1009C64.2896 75.8081 64.6432 75.4545 64.6432 75.4545L66.7648 74.7473H67.1184L67.472 74.3937L68.1792 72.9793C68.1792 72.9793 71.7152 73.3329 73.1296 73.3329C74.544 71.2113 79.1408 68.0289 82.3232 67.6753C85.5056 67.6753 90.8096 68.3825 95.0528 72.6257C98.9424 76.8689 97.8817 82.5265 97.8817 82.5265L105.661 85.0017L102.125 82.5265C99.296 75.4545 92.5776 69.0897 92.5776 69.0897C92.5776 69.0897 90.8096 68.7361 89.7488 68.7361C88.688 68.3825 87.9808 67.6753 87.9808 67.6753C87.9808 67.6753 87.6272 67.3217 86.92 66.2609L86.2128 64.8465C86.2128 64.8465 85.5056 64.1393 84.4448 63.4321C83.384 62.7249 79.4944 62.3713 77.3728 62.0177C75.2512 61.6641 75.2512 62.0177 75.2512 62.0177C81.2624 63.4321 83.0304 63.7857 83.384 64.1393C83.384 64.1393 83.7376 64.8465 84.0912 65.2001C79.1408 64.1393 74.544 64.8465 73.4832 65.2001C74.1904 66.2609 74.1904 67.6753 73.4832 68.7361C72.776 69.4433 70.6544 70.5041 70.6544 70.5041V70.5041ZM137.838 95.9634L138.899 100.56C138.899 100.56 139.96 99.4994 141.021 98.0849C142.082 96.6705 142.435 95.2561 142.435 95.2561L138.192 95.6097L137.838 95.9634ZM52.6208 63.7857L52.2672 67.6753H54.3888L54.7424 65.2001V66.6145H55.096V64.4929H54.7424V63.0785L57.9248 64.8465L58.2784 65.5537L58.9856 66.2609H59.6928L60.0464 65.9073V65.5537C57.9248 65.5537 57.9248 64.4929 57.9248 64.4929C57.9248 64.4929 58.2784 62.0177 58.632 61.3105C58.9856 60.6033 60.4 60.9569 60.4 60.9569L60.0464 60.6033H59.3392C58.632 60.2497 56.5104 58.8353 55.8032 58.4817V58.1281L56.1568 57.7745V56.3601H56.5104C56.5104 56.0065 56.864 56.0065 56.864 55.6529C57.5712 55.6529 62.8752 54.5921 62.8752 54.5921L57.9248 53.5313V53.1777C56.5104 52.8241 55.4496 52.4705 54.7424 52.1169C52.9744 54.2385 52.2672 57.0673 52.2672 57.0673C52.2672 57.0673 51.9136 62.0177 51.9136 62.7249C51.56 63.4321 52.6208 63.7857 52.6208 63.7857V63.7857ZM135.717 91.7201L136.424 92.7809L136.778 92.4273L139.606 88.8913V88.5377C138.192 88.5377 135.717 91.7201 135.717 91.7201V91.7201ZM127.23 85.3553L125.109 84.6481L120.158 90.3057L123.694 91.3665C124.402 88.5377 127.23 85.3553 127.23 85.3553V85.3553ZM134.656 93.4881C132.888 97.0242 133.242 99.4994 133.242 99.4994L135.01 95.6097V94.9026C135.363 94.9026 135.01 94.1953 134.656 93.4881ZM132.888 70.5041C132.888 70.5041 132.181 71.9185 131.827 72.2721C131.474 72.6257 128.998 72.9793 127.584 73.3329C126.17 74.0401 123.694 75.1009 122.987 75.8081C122.634 76.1617 122.634 77.2225 122.634 77.5761C122.634 77.5761 123.341 77.9297 123.694 77.9297L120.512 80.7585L121.219 81.4657L128.998 83.9409C130.766 82.5265 133.242 82.1729 133.242 82.1729C131.827 81.4657 125.816 78.9905 124.048 78.2833C124.048 78.2833 122.987 77.9297 122.987 77.5761V76.5153C122.987 76.5153 127.584 72.9793 134.656 72.9793L135.717 70.8577L132.888 70.5041V70.5041ZM137.485 101.621L136.07 97.3777H135.717L133.595 101.267L133.949 101.621C135.717 102.328 137.485 101.621 137.485 101.621ZM84.0912 61.3105L85.152 61.6641C85.152 61.6641 85.8592 61.6641 85.8592 60.9569V59.5425L84.7984 58.8353L83.384 58.4817C83.7376 58.8353 83.7376 59.1889 83.7376 59.1889H84.0912C84.0912 58.8353 84.4448 58.8353 84.4448 59.1889C84.4448 59.1889 85.152 59.5425 84.7984 60.6033C85.152 60.9569 84.4448 61.3105 84.0912 61.3105V61.3105ZM80.9088 80.7585C78.4336 85.3553 80.2016 88.5377 80.2016 88.5377L83.384 83.9409V83.2337L80.9088 80.7585ZM57.9248 53.5313L62.168 54.5921C62.5216 54.5921 64.9968 54.2385 64.9968 54.2385L58.2784 52.4705L57.9248 53.5313V53.5313ZM60.4 52.4705C66.0576 53.1777 67.1184 54.2385 67.1184 54.2385C67.1184 54.2385 69.24 53.8849 70.3008 53.8849C68.5328 52.4705 60.7536 49.9953 60.7536 49.9953C60.7536 49.9953 60.4 51.0561 60.4 52.4705V52.4705ZM68.8864 63.4321C67.8256 64.1393 66.7648 66.2609 67.1184 68.0289C67.472 69.7969 67.8256 69.7969 68.8864 69.7969C67.1184 69.0897 67.472 66.2609 68.8864 64.4929C69.9472 63.0785 71.008 64.1393 71.008 64.1393C71.008 64.1393 69.9472 62.7249 68.8864 63.4321V63.4321ZM43.7808 115.765C39.184 115.765 33.88 117.533 37.0624 122.483C63.2288 167.391 90.8096 177.999 102.478 183.656C107.782 181.181 116.269 177.291 126.523 170.219C132.534 166.33 131.827 160.319 130.413 156.429C122.987 138.042 82.3232 117.179 43.7808 115.765V115.765ZM191.232 31.9617C180.624 24.5361 154.458 11.0992 102.478 11.0992C84.4448 11.0992 69.24 12.8672 57.2176 15.3424C60.0464 19.9393 61.4608 25.2433 61.4608 30.9009C61.4608 38.6801 58.632 45.7521 54.0352 51.0561C55.096 51.4097 56.5104 51.7633 58.2784 52.1169L58.9856 50.3489C58.9856 50.3489 59.6928 50.3489 60.0464 50.7025C60.0464 48.9345 61.1072 48.9345 61.1072 48.9345C61.1072 48.9345 61.1072 48.5809 61.4608 48.5809C63.2288 48.9345 68.1792 51.4097 70.3008 52.4705C72.4224 53.5313 72.4224 53.8849 72.4224 53.8849C72.4224 53.8849 77.3728 53.8849 78.7872 53.5313C80.2016 53.5313 82.6768 52.4705 86.2128 51.4097C89.7488 50.3489 90.456 49.9953 91.1632 49.9953C91.8704 49.9953 98.2352 50.3489 103.893 51.0561C109.55 51.7633 114.854 53.8849 115.915 54.5921L117.683 54.9457L118.037 53.8849L115.208 52.8241C115.208 52.8241 115.562 51.0561 115.562 50.7025C115.562 50.3489 115.915 49.9953 116.269 49.9953C116.622 49.9953 119.805 50.7025 120.866 51.0561C121.926 51.4097 125.462 53.8849 125.816 53.8849C126.17 53.8849 126.17 54.2385 126.17 54.2385C126.17 54.9457 125.462 56.3601 125.462 56.3601L124.402 56.0065L125.462 56.3601C125.462 56.3601 126.523 56.7137 126.877 57.0673C127.23 57.4209 128.291 58.1281 129.352 59.1889C130.413 59.8961 130.059 60.9569 130.059 60.9569L132.534 63.4321V64.4929L138.546 70.5041V70.8577L135.717 72.6257C135.717 72.6257 139.606 72.2721 142.435 73.6865C145.264 75.1009 145.618 75.8081 145.618 76.5153C144.911 76.8689 143.85 77.2225 143.85 77.2225C141.728 77.9297 136.424 81.4657 136.424 81.4657V81.8193L139.253 82.5265C142.435 79.6977 148.093 78.6369 152.336 79.3441C166.834 82.1729 176.735 91.7201 178.856 99.853C178.856 100.207 179.21 100.914 179.21 101.267C193.707 67.3217 192.293 42.9233 191.232 31.9617V31.9617ZM140.314 83.5873C140.667 83.9409 141.021 83.9409 141.374 84.2945C143.496 85.7089 144.557 86.4161 144.91 89.5985C145.264 92.0737 144.557 95.6097 142.789 98.7922C152.69 105.511 166.48 100.207 171.784 105.511C170.723 92.0738 150.922 78.6369 140.314 83.5873ZM58.9856 66.2609L58.2784 66.6145V69.4433L58.9856 69.0897V66.2609ZM161.176 110.107C153.751 110.107 146.325 107.632 141.021 101.267V101.621C137.838 105.864 134.302 105.864 132.888 105.864C131.474 105.864 126.877 103.743 125.109 101.621C123.341 99.4994 123.341 95.6097 123.341 95.6097L116.269 93.1346L107.429 88.1841L106.014 87.8305C103.186 89.2449 99.6496 88.1841 96.4672 85.7089C96.1136 87.1233 94.3456 90.6593 92.224 92.4273C90.1024 94.1953 85.8592 96.6706 82.6768 96.6706C79.4944 96.6706 72.4224 93.1345 70.3008 88.1841C68.1792 83.2337 70.3008 77.9297 70.3008 77.9297L66.7648 77.2225L65.3504 75.4545C65.3504 75.4545 61.1072 78.9905 56.5104 77.5761C51.9136 76.1617 48.024 72.2721 46.9632 68.7361C46.256 65.2001 47.3168 62.0177 47.6704 61.6641C46.9632 59.1889 46.9632 57.7745 46.9632 57.7745H46.6096V56.7137C42.0128 59.8961 36.7088 61.3105 31.0512 61.3105C24.6864 61.3105 18.6751 59.1889 13.7247 56.0065C14.4319 63.7857 16.5535 72.9793 19.3823 83.2337C23.2719 97.3777 36.0015 101.975 55.096 105.157C97.1744 111.875 137.485 144.053 134.656 163.855C145.264 155.015 156.579 141.931 167.895 122.483C172.491 115.058 168.248 110.107 161.176 110.107V110.107ZM48.7312 61.3105L48.3776 65.2001H50.8528V64.8465H50.4992V64.4929H50.1456L50.4992 63.7857L50.8528 62.0177L50.4992 61.6641V60.9569L50.8528 60.6033L51.2064 56.3601L49.4384 55.2993C50.1456 52.4705 51.9136 49.9953 51.9136 49.9953H50.8528C49.0848 52.1169 48.3776 54.9457 48.3776 54.9457C48.3776 54.9457 48.024 59.5425 48.024 60.2497C48.024 61.3105 48.7312 61.3105 48.7312 61.3105V61.3105ZM87.6272 85.0017L89.3952 90.6593C92.9312 88.1841 93.6384 84.2945 93.6384 84.2945L87.9808 84.6481L87.6272 85.0017V85.0017ZM90.8096 76.1617L87.9808 81.1121L88.3344 81.4657L93.992 81.8193C93.992 77.9297 90.8096 76.1617 90.8096 76.1617V76.1617ZM55.4496 65.2001L55.096 67.3217H55.4496V65.2001ZM82.3232 78.6369L85.152 80.7585L85.8592 80.4049L89.0416 75.4545C85.152 75.1009 82.3232 78.6369 82.3232 78.6369ZM56.1568 65.5537L55.8032 65.2001V67.6753H56.1568V65.5537ZM57.2176 66.2609L56.864 68.7361H57.2176V66.2609ZM57.9248 66.6145L57.5712 69.0897H57.9248V66.6145ZM56.5104 65.9073L56.1568 68.3825H56.5104V65.9073Z" fill="white"/>
<path d="M199.718 31.2545L199.365 27.3648L195.829 24.8896C180.978 14.6352 152.69 2.61281 102.125 2.61281C83.0302 2.61281 65.7038 4.38081 50.499 7.91682C45.195 3.32001 38.123 0.491211 30.6974 0.491211C14.0782 0.491211 0.28772 13.928 0.28772 30.9008C0.28772 36.2049 1.70214 41.1553 4.17735 45.7521C4.88455 71.9185 13.0174 99.1457 28.9294 126.727C55.0958 170.927 83.0302 184.01 96.4671 190.021C97.5279 190.375 98.2351 190.728 98.9423 191.082L102.478 192.85L106.014 191.082C106.721 190.728 107.782 190.375 108.489 190.021C122.28 184.01 149.861 170.927 175.32 126.727C203.254 78.2833 200.779 42.9233 199.718 31.2545V31.2545Z" fill="white"/>
<path d="M94.3456 69.4433C94.3456 69.4433 98.9424 69.7969 102.832 74.7473L100.71 75.1009L99.6497 74.7473C99.6497 74.7473 96.4672 70.8577 94.3456 69.4433V69.4433ZM87.2736 91.3665L85.152 86.0625H84.4448L80.9088 90.3057C83.384 92.4273 87.2736 91.3665 87.2736 91.3665ZM119.805 60.2497L118.037 60.9569L120.158 64.8465L127.23 67.3217C124.402 61.3105 119.805 60.2497 119.805 60.2497V60.2497ZM99.6497 67.6753C101.771 70.1505 103.893 73.6865 103.893 73.6865C107.429 70.1505 114.854 68.7361 124.402 69.0897C110.965 66.2609 99.6497 67.6753 99.6497 67.6753V67.6753ZM86.5664 62.3713C86.5664 62.3713 90.456 62.3713 95.76 63.4321C92.224 60.9569 86.5664 59.5425 86.5664 59.5425V62.3713V62.3713ZM119.098 81.8193L113.086 87.1233L117.683 88.5377L122.28 83.5873L119.805 82.5265L119.098 81.8193V81.8193ZM79.1408 53.8849C79.1408 53.8849 81.616 55.2993 81.9696 55.2993C82.3232 55.2993 87.2736 57.0673 89.3952 57.7745C91.1632 58.4817 92.224 57.7745 92.5776 57.7745C92.9312 57.7745 98.9424 54.2385 98.9424 54.2385C93.6384 52.1169 88.688 50.7025 88.688 50.7025C88.3344 50.7025 79.1408 53.8849 79.1408 53.8849V53.8849ZM115.208 57.0673C114.854 56.3601 114.147 56.3601 109.904 55.6529C106.014 55.2993 102.478 54.9457 101.771 54.9457C101.064 54.9457 100.71 55.2993 100.71 55.2993C100.71 55.2993 98.5888 56.7137 96.8208 57.7745C95.0528 58.8353 94.6992 59.1889 94.3456 59.8961C93.992 60.2497 95.0528 61.6641 95.0528 61.6641L97.8817 65.2001C98.2353 65.2001 99.296 65.9073 99.296 65.9073C99.296 65.9073 104.954 65.5537 108.49 65.2001H117.683C118.037 65.2001 117.683 63.7857 116.976 62.0177C116.269 60.6033 115.208 57.0673 115.208 57.0673V57.0673ZM81.616 60.9569C81.616 60.9569 81.9696 60.9569 82.6768 61.3105C83.384 61.3105 83.7376 60.6033 83.7376 59.8961C83.7376 58.8353 82.6768 58.4817 82.6768 58.4817H81.9696L80.9088 58.8353L80.5552 61.3105H80.9088L81.616 60.9569C81.2624 60.2497 81.2624 59.8961 81.2624 59.1889C81.2624 58.8353 81.9696 58.1281 82.3232 58.1281C82.3232 58.1281 83.0304 58.1281 82.6768 59.5425C82.6768 60.9569 81.616 60.9569 81.616 60.9569V60.9569ZM141.374 88.8913L138.546 92.7809V93.1346H142.435C143.143 90.6593 141.374 88.8913 141.374 88.8913ZM70.6544 70.5041H69.9472L68.1792 70.1505C66.4112 69.7969 67.1184 66.6145 67.1184 66.6145L64.9968 67.3217C64.2896 65.9073 61.1072 62.0177 61.1072 62.0177L60.4 64.8465C60.7536 65.2001 62.5216 68.0289 62.8752 68.7361L61.8144 69.7969C61.8144 69.7969 61.4608 70.5041 61.4608 70.8577C61.4608 71.2113 61.1072 71.5649 61.1072 71.5649L59.6928 72.2721H59.3392L54.3888 68.3825V71.2113H54.7424C55.096 71.9185 55.8032 73.3329 57.5712 74.0401C58.9856 74.7473 60.7536 74.7473 61.4608 74.3937C62.168 74.7473 62.5216 74.7473 62.8752 75.1009C64.2896 75.8081 64.6432 75.4545 64.6432 75.4545L66.7648 74.7473H67.1184L67.472 74.3937L68.1792 72.9793C68.1792 72.9793 71.7152 73.3329 73.1296 73.3329C74.544 71.2113 79.1408 68.0289 82.3232 67.6753C85.5056 67.6753 90.8096 68.3825 95.0528 72.6257C98.9424 76.8689 97.8817 82.5265 97.8817 82.5265L105.661 85.0017L102.125 82.5265C99.296 75.4545 92.5776 69.0897 92.5776 69.0897C92.5776 69.0897 90.8096 68.7361 89.7488 68.7361C88.688 68.3825 87.9808 67.6753 87.9808 67.6753C87.9808 67.6753 87.6272 67.3217 86.92 66.2609L86.2128 64.8465C86.2128 64.8465 85.5056 64.1393 84.4448 63.4321C83.384 62.7249 79.4944 62.3713 77.3728 62.0177C75.2512 61.6641 75.2512 62.0177 75.2512 62.0177C81.2624 63.4321 83.0304 63.7857 83.384 64.1393C83.384 64.1393 83.7376 64.8465 84.0912 65.2001C79.1408 64.1393 74.544 64.8465 73.4832 65.2001C74.1904 66.2609 74.1904 67.6753 73.4832 68.7361C72.776 69.4433 70.6544 70.5041 70.6544 70.5041V70.5041ZM137.838 95.9634L138.899 100.56C138.899 100.56 139.96 99.4994 141.021 98.0849C142.082 96.6705 142.435 95.2561 142.435 95.2561L138.192 95.6097L137.838 95.9634ZM52.6208 63.7857L52.2672 67.6753H54.3888L54.7424 65.2001V66.6145H55.096V64.4929H54.7424V63.0785L57.9248 64.8465L58.2784 65.5537L58.9856 66.2609H59.6928L60.0464 65.9073V65.5537C57.9248 65.5537 57.9248 64.4929 57.9248 64.4929C57.9248 64.4929 58.2784 62.0177 58.632 61.3105C58.9856 60.6033 60.4 60.9569 60.4 60.9569L60.0464 60.6033H59.3392C58.632 60.2497 56.5104 58.8353 55.8032 58.4817V58.1281L56.1568 57.7745V56.3601H56.5104C56.5104 56.0065 56.864 56.0065 56.864 55.6529C57.5712 55.6529 62.8752 54.5921 62.8752 54.5921L57.9248 53.5313V53.1777C56.5104 52.8241 55.4496 52.4705 54.7424 52.1169C52.9744 54.2385 52.2672 57.0673 52.2672 57.0673C52.2672 57.0673 51.9136 62.0177 51.9136 62.7249C51.56 63.4321 52.6208 63.7857 52.6208 63.7857V63.7857ZM135.717 91.7201L136.424 92.7809L136.778 92.4273L139.606 88.8913V88.5377C138.192 88.5377 135.717 91.7201 135.717 91.7201V91.7201ZM127.23 85.3553L125.109 84.6481L120.158 90.3057L123.694 91.3665C124.402 88.5377 127.23 85.3553 127.23 85.3553V85.3553ZM134.656 93.4881C132.888 97.0242 133.242 99.4994 133.242 99.4994L135.01 95.6097V94.9026C135.363 94.9026 135.01 94.1953 134.656 93.4881ZM132.888 70.5041C132.888 70.5041 132.181 71.9185 131.827 72.2721C131.474 72.6257 128.998 72.9793 127.584 73.3329C126.17 74.0401 123.694 75.1009 122.987 75.8081C122.634 76.1617 122.634 77.2225 122.634 77.5761C122.634 77.5761 123.341 77.9297 123.694 77.9297L120.512 80.7585L121.219 81.4657L128.998 83.9409C130.766 82.5265 133.242 82.1729 133.242 82.1729C131.827 81.4657 125.816 78.9905 124.048 78.2833C124.048 78.2833 122.987 77.9297 122.987 77.5761V76.5153C122.987 76.5153 127.584 72.9793 134.656 72.9793L135.717 70.8577L132.888 70.5041V70.5041ZM137.485 101.621L136.07 97.3777H135.717L133.595 101.267L133.949 101.621C135.717 102.328 137.485 101.621 137.485 101.621ZM84.0912 61.3105L85.152 61.6641C85.152 61.6641 85.8592 61.6641 85.8592 60.9569V59.5425L84.7984 58.8353L83.384 58.4817C83.7376 58.8353 83.7376 59.1889 83.7376 59.1889H84.0912C84.0912 58.8353 84.4448 58.8353 84.4448 59.1889C84.4448 59.1889 85.152 59.5425 84.7984 60.6033C85.152 60.9569 84.4448 61.3105 84.0912 61.3105V61.3105ZM80.9088 80.7585C78.4336 85.3553 80.2016 88.5377 80.2016 88.5377L83.384 83.9409V83.2337L80.9088 80.7585ZM57.9248 53.5313L62.168 54.5921C62.5216 54.5921 64.9968 54.2385 64.9968 54.2385L58.2784 52.4705L57.9248 53.5313V53.5313ZM60.4 52.4705C66.0576 53.1777 67.1184 54.2385 67.1184 54.2385C67.1184 54.2385 69.24 53.8849 70.3008 53.8849C68.5328 52.4705 60.7536 49.9953 60.7536 49.9953C60.7536 49.9953 60.4 51.0561 60.4 52.4705V52.4705ZM68.8864 63.4321C67.8256 64.1393 66.7648 66.2609 67.1184 68.0289C67.472 69.7969 67.8256 69.7969 68.8864 69.7969C67.1184 69.0897 67.472 66.2609 68.8864 64.4929C69.9472 63.0785 71.008 64.1393 71.008 64.1393C71.008 64.1393 69.9472 62.7249 68.8864 63.4321V63.4321ZM43.7808 115.765C39.184 115.765 33.88 117.533 37.0624 122.483C63.2288 167.391 90.8096 177.999 102.478 183.656C107.782 181.181 116.269 177.291 126.523 170.219C132.534 166.33 131.827 160.319 130.413 156.429C122.987 138.042 82.3232 117.179 43.7808 115.765V115.765ZM191.232 31.9617C180.624 24.5361 154.458 11.0992 102.478 11.0992C84.4448 11.0992 69.24 12.8672 57.2176 15.3424C60.0464 19.9393 61.4608 25.2433 61.4608 30.9009C61.4608 38.6801 58.632 45.7521 54.0352 51.0561C55.096 51.4097 56.5104 51.7633 58.2784 52.1169L58.9856 50.3489C58.9856 50.3489 59.6928 50.3489 60.0464 50.7025C60.0464 48.9345 61.1072 48.9345 61.1072 48.9345C61.1072 48.9345 61.1072 48.5809 61.4608 48.5809C63.2288 48.9345 68.1792 51.4097 70.3008 52.4705C72.4224 53.5313 72.4224 53.8849 72.4224 53.8849C72.4224 53.8849 77.3728 53.8849 78.7872 53.5313C80.2016 53.5313 82.6768 52.4705 86.2128 51.4097C89.7488 50.3489 90.456 49.9953 91.1632 49.9953C91.8704 49.9953 98.2352 50.3489 103.893 51.0561C109.55 51.7633 114.854 53.8849 115.915 54.5921L117.683 54.9457L118.037 53.8849L115.208 52.8241C115.208 52.8241 115.562 51.0561 115.562 50.7025C115.562 50.3489 115.915 49.9953 116.269 49.9953C116.622 49.9953 119.805 50.7025 120.866 51.0561C121.926 51.4097 125.462 53.8849 125.816 53.8849C126.17 53.8849 126.17 54.2385 126.17 54.2385C126.17 54.9457 125.462 56.3601 125.462 56.3601L124.402 56.0065L125.462 56.3601C125.462 56.3601 126.523 56.7137 126.877 57.0673C127.23 57.4209 128.291 58.1281 129.352 59.1889C130.413 59.8961 130.059 60.9569 130.059 60.9569L132.534 63.4321V64.4929L138.546 70.5041V70.8577L135.717 72.6257C135.717 72.6257 139.606 72.2721 142.435 73.6865C145.264 75.1009 145.618 75.8081 145.618 76.5153C144.911 76.8689 143.85 77.2225 143.85 77.2225C141.728 77.9297 136.424 81.4657 136.424 81.4657V81.8193L139.253 82.5265C142.435 79.6977 148.093 78.6369 152.336 79.3441C166.834 82.1729 176.735 91.7201 178.856 99.853C178.856 100.207 179.21 100.914 179.21 101.267C193.707 67.3217 192.293 42.9233 191.232 31.9617V31.9617ZM140.314 83.5873C140.667 83.9409 141.021 83.9409 141.374 84.2945C143.496 85.7089 144.557 86.4161 144.91 89.5985C145.264 92.0737 144.557 95.6097 142.789 98.7922C152.69 105.511 166.48 100.207 171.784 105.511C170.723 92.0738 150.922 78.6369 140.314 83.5873ZM58.9856 66.2609L58.2784 66.6145V69.4433L58.9856 69.0897V66.2609ZM161.176 110.107C153.751 110.107 146.325 107.632 141.021 101.267V101.621C137.838 105.864 134.302 105.864 132.888 105.864C131.474 105.864 126.877 103.743 125.109 101.621C123.341 99.4994 123.341 95.6097 123.341 95.6097L116.269 93.1346L107.429 88.1841L106.014 87.8305C103.186 89.2449 99.6496 88.1841 96.4672 85.7089C96.1136 87.1233 94.3456 90.6593 92.224 92.4273C90.1024 94.1953 85.8592 96.6706 82.6768 96.6706C79.4944 96.6706 72.4224 93.1345 70.3008 88.1841C68.1792 83.2337 70.3008 77.9297 70.3008 77.9297L66.7648 77.2225L65.3504 75.4545C65.3504 75.4545 61.1072 78.9905 56.5104 77.5761C51.9136 76.1617 48.024 72.2721 46.9632 68.7361C46.256 65.2001 47.3168 62.0177 47.6704 61.6641C46.9632 59.1889 46.9632 57.7745 46.9632 57.7745H46.6096V56.7137C42.0128 59.8961 36.7088 61.3105 31.0512 61.3105C24.6864 61.3105 18.6751 59.1889 13.7247 56.0065C14.4319 63.7857 16.5535 72.9793 19.3823 83.2337C23.2719 97.3777 36.0015 101.975 55.096 105.157C97.1744 111.875 137.485 144.053 134.656 163.855C145.264 155.015 156.579 141.931 167.895 122.483C172.491 115.058 168.248 110.107 161.176 110.107V110.107ZM48.7312 61.3105L48.3776 65.2001H50.8528V64.8465H50.4992V64.4929H50.1456L50.4992 63.7857L50.8528 62.0177L50.4992 61.6641V60.9569L50.8528 60.6033L51.2064 56.3601L49.4384 55.2993C50.1456 52.4705 51.9136 49.9953 51.9136 49.9953H50.8528C49.0848 52.1169 48.3776 54.9457 48.3776 54.9457C48.3776 54.9457 48.024 59.5425 48.024 60.2497C48.024 61.3105 48.7312 61.3105 48.7312 61.3105V61.3105ZM87.6272 85.0017L89.3952 90.6593C92.9312 88.1841 93.6384 84.2945 93.6384 84.2945L87.9808 84.6481L87.6272 85.0017V85.0017ZM90.8096 76.1617L87.9808 81.1121L88.3344 81.4657L93.992 81.8193C93.992 77.9297 90.8096 76.1617 90.8096 76.1617V76.1617ZM55.4496 65.2001L55.096 67.3217H55.4496V65.2001ZM82.3232 78.6369L85.152 80.7585L85.8592 80.4049L89.0416 75.4545C85.152 75.1009 82.3232 78.6369 82.3232 78.6369ZM56.1568 65.5537L55.8032 65.2001V67.6753H56.1568V65.5537ZM57.2176 66.2609L56.864 68.7361H57.2176V66.2609ZM57.9248 66.6145L57.5712 69.0897H57.9248V66.6145ZM56.5104 65.9073L56.1568 68.3825H56.5104V65.9073Z" fill="url(#paint0_radial_6_86)"/>
<path opacity="0.4" d="M191.232 31.9618C192.293 45.045 194.061 77.2227 167.894 122.484C142.082 167.391 114.147 177.999 102.478 183.656V176.938C124.048 165.269 142.789 146.528 157.64 116.826C174.966 82.5267 177.088 54.5922 175.674 40.4482L191.232 31.9618V31.9618Z" fill="black"/>
<path opacity="0.4" d="M191.232 31.9617C180.624 24.5361 154.457 11.0992 102.478 11.0992C84.4445 11.0992 69.2397 12.8672 57.2173 15.3424C59.6925 19.232 61.1069 23.8289 61.4605 28.7793C74.8973 26.3041 89.3949 24.8897 104.953 25.2433C138.192 25.5969 165.065 33.0225 176.027 40.4481L191.232 31.9617" fill="url(#paint1_linear_6_86)"/>
<path d="M31.0509 52.8241C43.1588 52.8241 52.9741 43.0088 52.9741 30.9009C52.9741 18.793 43.1588 8.97766 31.0509 8.97766C18.9431 8.97766 9.12769 18.793 9.12769 30.9009C9.12769 43.0088 18.9431 52.8241 31.0509 52.8241Z" fill="url(#paint2_radial_6_86)"/>
<defs>
<radialGradient id="paint0_radial_6_86" cx="0" cy="0" r="1" gradientUnits="userSpaceOnUse" gradientTransform="translate(30.4394 30.328) scale(168.936 168.936)">
<stop stop-color="#00AEFF"/>
<stop offset="0.131" stop-color="#00A5F7"/>
<stop offset="0.345" stop-color="#008DE0"/>
<stop offset="0.616" stop-color="#0065BA"/>
<stop offset="0.928" stop-color="#002F87"/>
<stop offset="1" stop-color="#00217A"/>
</radialGradient>
<linearGradient id="paint1_linear_6_86" x1="57.2173" y1="25.7737" x2="191.455" y2="25.7737" gradientUnits="userSpaceOnUse">
<stop stop-color="white"/>
<stop offset="1" stop-color="white" stop-opacity="0"/>
</linearGradient>
<radialGradient id="paint2_radial_6_86" cx="0" cy="0" r="1" gradientUnits="userSpaceOnUse" gradientTransform="translate(25.1423 22.0644) scale(29.2993 29.2993)">
<stop stop-color="white"/>
<stop offset="0.679" stop-color="#7A7A7A"/>
<stop offset="1" stop-color="#404040"/>
</radialGradient>
</defs>
</svg>
