<svg width="205" height="250" viewBox="0 0 205 250" fill="none" xmlns="http://www.w3.org/2000/svg">
<path d="M0.138306 92.9531C0.585733 92.0582 0.585733 90.7159 0.585733 89.8211C1.03316 82.2148 2.37544 75.056 5.06001 67.8971C6.84972 62.0806 9.53428 56.7114 13.5611 51.7897C16.2457 48.6578 19.3777 45.9732 23.4045 44.6309C24.2994 44.6309 24.2994 44.1835 24.2994 43.2886C24.2994 41.4989 24.2994 39.7092 24.2994 37.9195C24.2994 29.4184 24.2994 20.9173 24.2994 11.9687C24.2994 7.49444 26.9839 2.57274 31.9056 1.23046C38.1696 -1.00668 44.881 3.02017 46.6707 9.73158C47.1182 11.0739 47.1182 12.8636 47.1182 14.2058C47.1182 15.9956 47.1182 17.3378 47.1182 19.1275C48.013 18.6801 48.4605 18.2327 49.3553 17.7853C56.9616 11.9687 65.4627 7.49444 74.8587 4.36245C81.5701 2.12531 88.2815 0.78303 94.9929 0.335603C111.1 -1.00668 126.313 1.67788 140.63 8.83672C148.684 12.8636 156.29 17.7853 162.554 24.0492C168.818 29.4184 173.74 36.1298 178.214 42.8412C178.662 43.7361 179.557 44.1835 180.452 44.6309C184.926 45.5258 188.505 48.2103 191.19 51.7897C194.322 55.8166 197.006 60.2909 198.796 65.2126C201.033 71.4765 202.823 77.7405 203.718 84.4519C204.613 90.7159 205.06 96.9799 204.613 103.244C204.165 113.535 202.375 123.826 198.349 133.669C197.454 136.354 196.111 138.591 194.769 140.828C191.19 147.092 185.821 151.119 179.109 154.251C176.872 155.145 174.635 156.04 172.398 156.488C172.398 156.935 172.845 157.383 173.293 157.383C175.53 159.172 177.767 160.962 179.557 162.752C180.452 163.647 181.346 164.094 182.241 164.541C187.61 166.331 191.637 169.463 195.217 173.49C198.796 177.964 201.033 182.886 202.375 188.255C204.613 198.098 201.928 206.6 196.559 214.653C192.979 220.47 187.61 225.392 181.794 229.418C171.95 236.13 161.212 240.604 150.026 243.736C141.973 245.973 133.919 247.763 125.865 248.658C122.733 249.105 119.601 249.105 116.917 249.553C116.469 249.553 115.575 249.105 115.575 250C107.521 250 99.4672 250 91.4135 250C90.9661 249.105 90.5186 249.553 89.6238 249.553C83.8072 249.105 78.4381 248.21 72.6215 247.315C61.4358 245.973 50.6976 242.841 39.9593 238.367C30.1159 233.893 20.72 228.524 13.1137 220.47C8.63943 215.548 5.06001 210.179 2.82287 203.915C1.48059 199.888 1.03316 195.414 1.48059 191.387C2.37544 187.36 4.16515 183.781 6.84971 180.201C10.8766 174.832 15.3508 170.358 20.2725 166.331C22.0622 164.989 22.0622 164.989 21.1674 162.752C18.4828 157.383 15.3508 152.461 13.5611 146.644C13.5611 146.197 13.1137 145.749 13.1137 145.302C9.53428 140.828 6.84972 135.459 5.06001 129.642C2.82287 122.483 1.48059 115.324 0.585733 107.718C0.585733 106.376 0.585733 105.481 0.138306 104.139C0.138306 100.559 0.138306 96.9799 0.138306 92.9531ZM152.711 156.04C149.132 156.04 145.105 155.593 141.525 156.488C137.051 157.383 133.919 160.515 133.024 165.436C133.024 166.331 133.024 167.226 133.024 168.121C133.024 176.175 126.313 182.886 117.812 183.333C116.917 183.333 116.469 183.333 116.022 184.228C114.68 186.018 112.89 186.913 110.653 186.913C107.968 186.913 105.284 186.913 102.599 186.913C100.362 186.913 98.1249 186.913 95.8878 186.913C93.6506 186.913 91.8609 186.018 90.966 183.781C88.7289 179.754 91.4135 174.832 96.3352 174.832C101.257 174.832 106.179 174.832 111.1 174.832C112.89 174.832 114.232 175.28 115.127 176.622C115.575 177.517 116.469 177.517 117.364 177.517C122.286 177.069 126.313 172.595 127.208 168.121C127.208 166.331 127.208 164.541 127.655 162.752C128.997 155.145 135.261 150.224 142.868 150.224C151.369 150.224 159.87 150.224 168.371 150.224C169.266 150.224 170.161 150.224 171.056 150.224C175.082 149.329 178.214 147.092 180.899 143.96C184.926 139.486 187.163 134.116 188.953 128.3C192.085 118.904 192.979 109.508 192.532 99.6645C192.532 91.6108 191.19 84.0045 188.953 76.3982C187.163 70.5817 184.926 65.2126 181.346 60.2909C178.662 56.7114 175.53 54.0269 170.608 53.132C170.161 53.132 169.713 52.6846 169.713 52.2372C169.266 51.7897 169.266 51.3423 168.818 50.8949C161.66 39.7092 152.264 30.3132 140.183 23.6018C130.34 17.7853 119.601 14.6533 108.416 13.7584C101.704 13.311 94.9929 13.311 88.7289 14.2058C77.9907 15.5481 68.1473 19.575 58.7513 25.839C54.7244 28.5235 50.2502 31.6555 47.1182 35.6824C44.4336 38.3669 42.1965 41.4989 39.5119 44.6309C39.0645 45.0783 39.0645 45.5258 38.6171 45.5258C38.6171 41.4989 38.6171 37.4721 38.6171 33.4452C38.6171 32.9978 39.0645 32.5504 39.5119 32.1029C40.8542 30.7607 41.3016 28.971 41.3016 27.1812C41.3016 26.2864 41.3016 24.9441 41.3016 24.0492C41.3016 20.4698 41.3016 16.8904 41.3016 13.311C41.3016 9.28415 37.2748 6.59958 33.6954 7.94187C31.4582 7.94187 29.6685 10.179 29.6685 12.8636C29.6685 17.7853 29.6685 22.2595 29.6685 27.1812C29.6685 28.971 30.1159 30.3132 31.4582 31.6555C31.9056 31.6555 32.3531 32.5504 32.3531 32.9978C32.3531 39.2618 32.3531 45.5258 32.3531 51.7897C32.3531 52.6846 31.9056 53.132 31.4582 53.5795C29.2211 54.4743 26.9839 56.264 25.1942 58.0537C21.1674 62.528 18.4828 67.8971 16.6931 73.2663C14.0086 81.32 12.6663 89.3736 12.2188 97.8748C11.7714 107.271 12.6663 116.667 15.3508 126.063C17.1405 132.327 19.3777 138.143 23.852 143.512C24.2994 143.96 24.2994 144.407 24.7468 144.855C26.0891 148.434 27.4314 152.013 29.2211 155.593C32.8005 162.752 37.2748 169.016 43.0913 174.385C50.6976 181.991 60.0936 187.36 69.937 191.834C76.201 194.519 82.4649 195.861 89.1763 197.651C95.4403 198.993 101.257 199.441 107.521 198.993C113.785 198.098 119.601 196.309 125.418 193.624C139.288 186.018 148.684 174.385 153.158 159.172C152.711 157.383 153.158 156.935 152.711 156.04ZM23.852 166.331C23.4045 166.331 23.4045 166.779 22.9571 166.779C20.2725 170.358 17.588 174.385 15.3508 178.412C13.5611 181.991 12.6663 186.018 13.1137 190.492C13.5611 193.624 14.456 196.756 15.7983 199.441C18.4828 205.705 22.9571 210.626 28.3262 215.101C35.4851 220.917 43.5388 225.392 52.0399 228.524C67.6998 234.34 83.8072 237.025 100.362 237.472C111.548 237.472 122.733 236.577 133.919 234.34C145.105 232.103 155.843 228.524 166.134 222.707C172.398 219.128 178.214 215.101 183.136 209.284C186.716 205.257 189.847 200.336 191.19 194.966C191.637 194.072 191.637 193.177 191.637 192.282C191.19 190.492 191.19 188.702 190.742 187.36C188.953 181.096 184.926 177.069 178.662 176.175C175.53 175.727 172.398 175.727 169.266 176.175C164.344 177.069 159.422 178.412 154.501 180.201C147.342 182.886 140.63 186.465 134.367 190.492C122.733 198.546 109.311 203.02 94.9929 203.915C88.2815 204.362 81.1227 203.915 74.4112 202.125C56.9616 198.098 42.1965 189.15 30.5634 175.28C27.8788 172.595 25.6417 169.463 23.852 166.331Z" fill="#EFB041"/>
<path d="M169.713 104.586C169.266 117.562 164.344 127.852 153.606 135.011C140.631 143.96 123.181 142.17 111.995 130.984C110.206 129.195 108.416 126.958 107.074 125.168C106.626 124.273 106.179 124.273 105.284 124.273C103.494 124.273 101.705 124.273 99.4674 124.273C98.5725 124.273 97.6777 124.72 97.2303 125.615C94.0983 130.537 90.0714 134.116 85.1497 136.801C72.6218 143.96 56.5144 141.723 46.2235 131.879C39.9596 126.063 35.9327 118.456 35.0379 109.955C33.2481 96.0851 37.7224 84.0046 48.9081 75.056C54.7247 70.5817 61.4361 68.3446 69.0423 68.3446C90.9663 68.3446 112.89 68.3446 134.814 68.3446C151.369 68.3446 164.792 79.9777 168.371 95.6377C169.266 98.7697 169.713 101.454 169.713 104.586ZM77.5435 105.034C70.832 103.244 66.3578 99.2171 63.6732 92.9531C60.0938 100.112 58.3041 101.454 49.803 105.034C56.5144 106.823 60.9886 110.85 63.6732 117.114C66.3578 110.85 70.832 106.823 77.5435 105.034ZM131.235 110.403C133.919 111.298 135.709 112.64 137.051 115.324C138.394 113.087 139.736 111.298 142.42 110.403C139.736 109.508 137.946 107.718 137.051 105.481C135.262 108.166 133.919 109.508 131.235 110.403ZM122.286 101.902C124.971 102.797 126.313 104.139 127.208 105.928C128.103 104.139 129.892 102.797 132.13 101.902C129.892 101.007 128.55 99.6645 127.208 97.8748C126.313 100.112 124.971 101.454 122.286 101.902ZM148.684 102.797C147.342 101.902 146.447 101.007 145.552 100.112C145.105 101.454 143.763 101.902 142.42 102.797C143.763 103.244 144.658 104.139 145.552 105.481C146.447 104.139 147.342 103.244 148.684 102.797ZM89.624 88.0314C87.8343 87.1366 87.8343 87.1365 86.492 85.3468C86.0446 86.6891 84.7023 87.584 83.36 88.0314C84.7023 88.4788 85.5971 89.3737 86.492 90.716C87.3869 89.3737 87.8343 88.4788 89.624 88.0314ZM137.946 96.0851C138.841 95.1902 139.288 94.2954 140.183 93.848C139.288 93.4005 138.394 92.5057 137.946 91.6108C137.051 92.5057 136.604 93.4005 135.709 93.848C136.604 94.7428 137.499 95.1902 137.946 96.0851Z" fill="#EFB041"/>
<path d="M102.599 215.548C104.836 215.548 107.521 215.548 109.758 215.548C112.89 215.548 115.574 218.233 115.574 221.365C115.574 224.497 112.89 227.629 109.758 227.629C104.836 227.629 99.4671 227.629 94.5454 227.629C91.8608 227.629 89.1762 225.392 88.7288 222.26C88.2814 219.128 90.0711 216.443 93.2031 215.548C93.6505 215.548 94.5454 215.548 94.9928 215.548C97.6773 215.548 100.362 215.548 102.599 215.548Z" fill="#EFB041"/>
<path d="M125.865 227.629C122.286 227.629 119.601 224.944 119.601 221.365C119.601 218.233 122.286 215.548 125.865 215.548C129.445 215.548 132.129 218.233 132.129 221.365C131.682 225.392 128.55 227.629 125.865 227.629Z" fill="#EFB041"/>
<path d="M85.1498 221.812C85.1498 225.392 82.4652 227.629 78.8858 227.629C75.3064 227.629 73.0692 224.944 73.0692 221.365C73.0692 218.233 75.7538 215.548 79.3332 215.548C82.0178 215.548 85.1498 218.233 85.1498 221.812Z" fill="#EFB041"/>
</svg>
