<svg width="238" height="270" viewBox="0 0 238 270" fill="none" xmlns="http://www.w3.org/2000/svg">
<path d="M118.562 267.64C118.088 267.464 70.77 249.708 44.4702 231.58C4.18367 203.827 2.39673 165.587 2.39673 88.5962V42.369L119.063 2.15814L235.717 42.3674V88.5946C235.717 165.586 233.93 203.825 193.643 231.578C167.344 249.706 120.035 267.462 119.563 267.638L119.063 267.824L118.562 267.64Z" fill="#0A1723" stroke="#031422" stroke-width="0.157578" stroke-miterlimit="10"/>
<path d="M119.063 3.66935L234.292 43.387V88.5978C234.292 164.77 232.724 202.929 192.835 230.406C166.376 248.646 119.063 266.304 119.063 266.304C119.063 266.304 71.7422 248.644 45.2817 230.404C5.39224 202.927 3.82434 164.768 3.82434 88.5963V43.387L119.063 3.66935ZM119.063 0.650146L118.133 0.970031L2.8962 40.6877L0.972168 41.3511V43.387V88.5978C0.972168 166.096 2.78589 204.599 43.6649 232.755C70.1097 250.986 116.121 268.251 118.067 268.978L119.065 269.35L120.062 268.978C122.008 268.251 168.01 250.986 194.456 232.755C235.334 204.598 237.148 166.096 237.148 88.5978V43.387V41.3511L235.224 40.6877L119.993 0.970031L119.063 0.650146Z" fill="url(#paint0_linear_4_49)"/>
<path d="M47.7698 160.999C40.5401 164.565 30.9357 168.779 20.296 172.513C22.1744 180.608 24.7523 187.836 28.2821 194.388C36.2382 189.33 43.2757 184.223 48.7121 179.943C47.9558 173.322 47.6548 167.007 47.7698 160.999V160.999Z" fill="white"/>
<path d="M65.6156 101.735L65.6108 101.74C52.1536 96.3681 32.0277 86.7432 15.2488 74.0754V92.6461C15.2488 96.1159 15.2551 99.4802 15.2661 102.78C30.9609 108.706 47.0371 112.416 58.4079 114.375C60.5778 109.847 63.0061 105.643 65.6156 101.735V101.735Z" fill="white"/>
<path d="M84.5565 80.3644C75.2578 70.812 62.2623 55.6703 52.3159 38.9859L26.6527 47.8576C40.8474 65.883 61.0395 81.5274 74.3423 90.4211C77.6435 86.6975 81.0803 83.3553 84.5565 80.3644V80.3644Z" fill="white"/>
<path d="M96.3166 71.5716L96.3151 71.5731C101.063 68.5161 105.65 66.1193 109.797 64.3292C105.951 53.8991 101.343 38.8756 98.581 22.9901L75.7306 30.8927C81.8651 46.8506 90.0482 61.6315 96.3166 71.5716V71.5716Z" fill="white"/>
<path d="M52.9116 128.391L52.9053 128.407C43.0756 128.791 29.6247 128.632 15.5939 127.009C15.8287 135.216 16.2195 142.8 16.8576 149.847C29.2607 148.424 40.7371 146.081 49.2794 143.91V143.914C50.1524 138.44 51.3878 133.271 52.9116 128.391Z" fill="white"/>
<path d="M52.5082 201.018C49.6497 204.45 46.2003 208.37 42.3097 212.494C45.384 215.374 48.7846 218.124 52.5948 220.756C54.9191 222.366 57.4293 223.967 60.053 225.549C56.8747 216.988 54.3991 208.827 52.5082 201.018V201.018Z" fill="white"/>
<path d="M162.115 106.745C164.414 108.623 170.383 106.875 170.383 106.875L166.061 101.737L156.809 95.5645C156.809 95.5645 159.811 104.863 162.115 106.745V106.745Z" fill="white"/>
<path d="M198.968 160.772L192.318 158.196L186.759 153.716L189.961 161.459L198.968 160.772Z" fill="white"/>
<path d="M125.525 18.1493C121.699 30.3947 120.495 45.4513 124.808 60.248L124.709 60.2747C124.741 60.2747 124.777 60.27 124.812 60.27C126.353 58.669 138.177 46.3196 148.784 34.673C148.784 34.673 162.771 50.7208 143.215 67.2397C143.215 67.2397 178.078 91.6076 180.333 92.6477C180.333 92.6477 178.524 100.226 180.262 106.697L207.681 159.853L193.837 176.167L173.546 164.732L183.328 180.422C183.328 180.422 172.273 181.795 168.902 180.119C166.997 170.173 158.195 154.072 158.195 154.072L137.545 145.711C137.545 145.711 128.543 134.65 129.172 118.525C129.172 118.525 118.885 160.781 146.658 171.322L185.525 220.756C221.459 195.936 222.871 161.459 222.871 92.6461V51.8002L125.525 18.1493Z" fill="white"/>
<defs>
<linearGradient id="paint0_linear_4_49" x1="14.1031" y1="36.2646" x2="222.947" y2="203.228" gradientUnits="userSpaceOnUse">
<stop stop-color="#AD9742"/>
<stop offset="0.486" stop-color="#C4BA40"/>
<stop offset="1" stop-color="#AD9742"/>
</linearGradient>
</defs>
</svg>
