<svg width="391" height="195" viewBox="0 0 391 195" fill="none" xmlns="http://www.w3.org/2000/svg">
<path d="M195.594 4.75984C206.009 2.38297 216.713 1.53979 227.369 0.977661C251.973 1.64414 277.652 7.21692 297.309 22.8033C292.122 21.9843 286.999 20.7798 281.779 20.1775C265.31 18.2101 248.551 19.0131 232.283 22.1689C221.402 24.3531 210.593 27.3484 200.588 32.2308C186.045 39.2248 172.603 48.4756 160.468 59.0832C164.274 58.3364 168.016 57.3086 171.798 56.4493C189.481 52.5549 207.669 51.2782 225.744 51.7196C258.522 52.4905 291.311 58.1274 322.122 69.4581C342.357 76.9824 361.886 86.8674 378.992 100.133C383.015 103.273 386.91 106.597 390.371 110.363C375.395 109.127 360.338 107.023 345.3 108.701C336.499 109.721 327.778 112.025 319.925 116.185C308.819 121.918 299.609 130.583 290.864 139.376C274.419 155.966 258.222 173.712 237.006 184.295C222.945 191.707 206.99 194.646 191.217 194.991C176.578 194.373 161.779 191.314 148.962 183.966C142.024 179.991 135.495 175.029 130.669 168.589C154.117 177.895 181.073 177.341 204.321 167.697C215.595 162.911 225.673 155.692 234.731 147.51C251.666 132.341 266.24 114.394 285.361 101.778C289.561 98.9349 294.13 96.7107 298.522 94.1811C291.006 93.0729 283.393 93.0167 275.821 92.5028C262.467 92.045 249.089 91.7801 235.72 92.2053C235.56 97.7941 235.166 103.512 232.934 108.723C228.019 121.418 215.934 130.998 202.396 132.701C189.002 134.692 174.869 128.854 166.71 118.078C163.177 113.718 161.169 108.41 159.564 103.11C151.582 105.182 143.913 108.41 136.525 112.047C138.3 124.831 147.229 135.399 157.661 142.393C165.811 147.998 175.311 151.226 184.971 153.041C180.313 154.847 175.286 155.217 170.356 155.594C152.794 156.662 134.775 151.491 120.844 140.642C114.926 136.194 110.188 130.444 105.957 124.422C88.7322 129.818 70.2389 131.167 52.446 127.971C36.7874 125.233 21.1447 119.355 9.3821 108.362C5.83282 105.093 2.85373 101.239 0.52478 97.0152C16.858 100.348 33.9698 103.214 50.4221 98.9424C68.9716 94.3412 84.0039 81.7342 97.9345 69.2875C111.329 57.2342 124.233 44.5951 138.549 33.6261C155.493 20.5293 174.572 9.59213 195.594 4.75811M175.832 98.5017C177.398 106.122 182.995 112.835 190.479 115.188C199.312 118.208 209.839 114.65 214.994 106.869C217.885 102.822 218.945 97.7953 218.736 92.8888C204.33 93.5713 189.876 95.1532 175.831 98.5017H175.832Z" fill="black"/>
</svg>
